<?xml version="1.0" encoding="utf-8"?>
<svg fill="#545454" id="logo" viewBox="0 0 2839 887" width="100%" height="100%" version="1.1" xmlns="http://www.w3.org/2000/svg" xmlns:xlink="http://www.w3.org/1999/xlink" x="0px" y="0px">
        <path d="M439.86,177.175c93.939,0,168.84,43.14,216.68,115.56l143.72-87.98C731.44,88.005,596.08,16.735,440.99,16.735         C182.4,16.735,1,199.365,1,451.425c0,252.061,181.4,434.66,439.99,434.66c153.88,0,278.42-68.271,353.86-177.229l-136.5-98.19         c-50.24,73.64-125.15,114.96-218.49,114.96c-147.89,0-264.64-105.97-264.64-274.2C175.22,288.555,288.37,177.175,439.86,177.175          M1182.16,274.797c-180.2,0-313.15,130.54-313.15,305.35c0,174.801,132.95,305.33,313.15,305.33         c180.8,0,314.299-130.529,314.299-305.33C1496.459,405.337,1362.96,274.797,1182.16,274.797 M1182.16,739.977         c-87.99,0-153.87-65.84-153.87-159.83c0-94.01,65.88-159.85,153.87-159.85c88.59,0,154.46,65.84,154.46,159.85         C1336.62,674.137,1270.75,739.977,1182.16,739.977 M2738.582,199.97c55.66,0,99.971-43.13,99.971-99.43         c0-56.25-44.311-100.54-99.971-100.54c-56.25,0-99.4,44.29-99.4,100.54C2639.182,156.84,2682.332,199.97,2738.582,199.97          M2563.611,290.384v138.88h97.729v441.25h156.291v-580.13H2661.34H2563.611z M1984.865,290.384h-234.93h-32.861h-123.41v580.13         h156.271v-441.25h234.93V290.384z M2257.131,641.213v-211.95h175.922v-138.88h-175.922v-172.46h-156.279v172.46v138.88v224.49         v216.76h156.279v0.03h210.131v-138.9h-210.131V641.213z"></path>
    </svg>