<svg xmlns="http://www.w3.org/2000/svg" width="36" height="34" viewBox="0 0 36 34">
    <g fill="none" fill-rule="evenodd">
        <g fill="#3042FF" opacity=".5">
            <path d="M20.474 5.625c-13.502 0-13.136 8.905-13.136 15.953 0 7.049 10.51 12.364 13.136 12.364 2.626 0 14.729-5.315 14.729-12.364 0-7.048-1.227-15.953-14.729-15.953z"/>
            <path d="M17.174 29.05c13.502 0 13.136-8.904 13.136-15.953C30.31 6.05 19.8.734 17.174.734 14.55.734 2.446 6.049 2.446 13.097c0 7.049 1.226 15.953 14.728 15.953z"/>
            <path d="M17.117 33.942c12.93 0 15.524-13.477 15.524-18.346 0-4.87-13.67-9.97-15.524-9.97C15.262 5.625 0 11.643 0 15.595c0 3.951 4.186 18.346 17.117 18.346z"/>
            <path d="M7.202 16.673c.941 13.47 9.799 12.483 16.83 11.992 7.031-.492 11.6-11.348 11.417-13.967C35.266 12.08 29.12.376 22.09.868c-7.032.492-15.83 2.336-14.887 15.805z"/>
        </g>
        <circle cx="18.933" cy="17.278" r="11.178" fill="#3042FF"/>
        <path fill="#FFF" d="M20.766 18.8a2.52 2.52 0 0 1-3.579 0 2.556 2.556 0 0 1 0-3.6 2.52 2.52 0 0 1 3.579 0 .72.72 0 0 0 1.022 0 .73.73 0 0 0 0-1.028 3.96 3.96 0 0 0-5.623 0 4.017 4.017 0 0 0 0 5.656 3.96 3.96 0 0 0 5.623 0 .73.73 0 0 0 0-1.028.72.72 0 0 0-1.022 0z"/>
    </g>
</svg>
